<?xml version="1.0" encoding="UTF-8"?>
<svg width="37px" height="69px" viewBox="0 0 37 69" version="1.1" xmlns="http://www.w3.org/2000/svg" xmlns:xlink="http://www.w3.org/1999/xlink">
    <!-- Generator: Sketch 53.2 (72643) - https://sketchapp.com -->
    <title>fanhui copy 4</title>
    <desc>Created with Sketch.</desc>
    <g id="Page-1" stroke="none" stroke-width="1" fill="none" fill-rule="evenodd">
        <g id="文章编辑" transform="translate(-81.000000, -100.000000)" fill="#666666" fill-rule="nonzero">
            <g id="fanhui-copy-4" transform="translate(81.000000, 100.000000)">
                <path d="M34.2777875,69 C33.5761194,69 32.8831138,68.7297622 32.3460345,68.1980039 L0.796956394,36.4406999 C0.285864794,35.9263763 0,35.2289883 0,34.496731 C0,33.7644736 0.285864794,33.0670857 0.796956394,32.5527621 L32.3460345,0.804175484 C33.4115306,-0.268058495 35.1353819,-0.268058495 36.200878,0.804175484 C37.266374,1.87640946 37.266374,3.611162 36.200878,4.68339598 L6.57489025,34.496731 L36.200878,64.310066 C37.266374,65.3823 37.266374,67.1170525 36.200878,68.1892865 C35.6811238,68.7297622 34.9794557,69 34.2777875,69 L34.2777875,69 Z" id="路径"></path>
            </g>
        </g>
    </g>
</svg>