<?xml version="1.0" encoding="UTF-8"?>
<svg width="40px" height="38px" viewBox="0 0 40 38" version="1.1" xmlns="http://www.w3.org/2000/svg" xmlns:xlink="http://www.w3.org/1999/xlink">
    <!-- Generator: Sketch 53.2 (72643) - https://sketchapp.com -->
    <title>fasong</title>
    <desc>Created with Sketch.</desc>
    <g id="Page-1" stroke="none" stroke-width="1" fill="none" fill-rule="evenodd">
        <g id="文章编辑" transform="translate(-1045.000000, -119.000000)" fill="#3A87E6" fill-rule="nonzero">
            <g id="fasong" transform="translate(1045.000000, 119.000000)">
                <path d="M36.381401,0.421272678 L1.76270972,19.8344017 C0.640141953,20.4666915 0.0603032274,21.3097446 0,22.1253067 L0,22.4277062 C0.0788580666,23.4036317 0.899909701,24.2970847 2.40749039,24.6865385 L9.12434218,26.4276263 C9.83406478,26.5971533 10.5530648,26.1756268 10.7386132,25.4746099 C10.9241616,24.7735929 10.5113164,24.0588306 9.80623252,23.8618127 L3.11257428,22.1253067 L37.2302849,2.9916681 L33.5100396,29.2866758 C33.4543751,29.6761296 33.1528589,29.8731475 32.7771235,29.7723477 L18.494536,26.0244271 L30.0681169,14.5928111 C30.5922911,14.0750665 30.5922911,13.2365953 30.0681169,12.714269 C29.5439427,12.1965244 28.6950588,12.1965244 28.1662459,12.714269 L15.4793746,25.2501012 C15.3680456,25.3600646 15.2706327,25.470028 15.1732198,25.5891551 C14.8948972,25.7632639 14.6815165,26.0335907 14.5887423,26.3726446 C14.5562714,26.4963535 14.5423552,26.6200624 14.5423552,26.7391894 C14.4078326,27.1286433 14.338252,27.5410062 14.338252,27.9579509 L14.338252,35.673719 C14.338252,37.529352 16.4303101,38.6335682 17.9935553,37.6072428 L24.487749,33.332414 C24.8866781,33.0712509 25.1139749,32.6176517 25.0815039,32.1411434 C25.0490329,31.669217 24.7660716,31.2476905 24.3346716,31.0369272 C23.9032716,30.826164 23.3930135,30.8582366 22.9940845,31.1239816 L17.024065,35.0551746 L17.024065,28.3840592 L32.081317,32.3335795 C34.0202977,32.8421604 35.8896977,31.6188171 36.1680203,29.6486388 L39.9624849,2.82672294 C40.2918333,0.567890598 38.3992397,-0.715016207 36.381401,0.421272678 L36.381401,0.421272678 Z" id="路径"></path>
            </g>
        </g>
    </g>
</svg>